<svg width="24" height="24" viewBox="0 0 24 24" fill="none" xmlns="http://www.w3.org/2000/svg">
<path d="M18.4 1.2C18.4 0.537305 17.8627 0 17.2 0H6.79998C6.13728 0 5.59998 0.537305 5.59998 1.2V22.8C5.59998 23.4627 6.13728 24 6.79998 24H17.2C17.8627 24 18.4 23.4627 18.4 22.8V1.2ZM17.6 21.6H15.2V13.6H17.6V21.6ZM6.39998 21.6V13.6H8.79998V21.6H6.39998ZM9.59998 13.6H14.4V21.6H9.59998V13.6ZM6.39998 12.8V10.4H7.19998C7.70837 10.3994 8.1615 10.0791 8.33162 9.6H15.6683C15.8385 10.0791 16.2916 10.3994 16.8 10.4H17.6V12.8H6.39998ZM6.79998 0.8H17.2C17.4209 0.8 17.6 0.979102 17.6 1.2V9.6H16.8C16.5791 9.6 16.4 9.4209 16.4 9.2C16.4 8.9791 16.2209 8.8 16 8.8H7.99998C7.77908 8.8 7.59998 8.9791 7.59998 9.2C7.59998 9.4209 7.42087 9.6 7.19998 9.6H6.39998V1.2C6.39998 0.979102 6.57908 0.8 6.79998 0.8ZM17.2 23.2H6.79998C6.57908 23.2 6.39998 23.0209 6.39998 22.8V22.4H17.6V22.8C17.6 23.0209 17.4209 23.2 17.2 23.2Z" fill="#90CBF9"/>
<path d="M12 14.4C11.1164 14.4 10.4 15.1164 10.4 16C10.4 16.8836 11.1164 17.6 12 17.6C12.8836 17.6 13.6 16.8836 13.6 16C13.6 15.1164 12.8836 14.4 12 14.4ZM12 16.8C11.5582 16.8 11.2 16.4418 11.2 16C11.2 15.5582 11.5582 15.2 12 15.2C12.4418 15.2 12.8 15.5582 12.8 16C12.8 16.4418 12.4418 16.8 12 16.8Z" fill="#90CBF9"/>
<path d="M12 18.4C11.3373 18.4 10.8 18.9373 10.8 19.6C10.8 20.2627 11.3373 20.8 12 20.8C12.6627 20.8 13.2 20.2627 13.2 19.6C13.2 18.9373 12.6627 18.4 12 18.4ZM12 20C11.7791 20 11.6 19.8209 11.6 19.6C11.6 19.3791 11.7791 19.2 12 19.2C12.2209 19.2 12.4 19.3791 12.4 19.6C12.4 19.8209 12.2209 20 12 20Z" fill="#90CBF9"/>
<path d="M14 11.2H15.6V12H14V11.2Z" fill="#90CBF9"/>
<path d="M8.40002 11.2H10V12H8.40002V11.2Z" fill="#90CBF9"/>
<path d="M10.916 11.316C10.843 11.3926 10.8016 11.4941 10.8 11.6C10.8006 11.6523 10.8115 11.7039 10.832 11.7519C10.8523 11.8004 10.8808 11.8451 10.916 11.884C11.0738 12.0387 11.3262 12.0387 11.484 11.884C11.5205 11.8451 11.5502 11.8006 11.5721 11.7519C11.5912 11.7037 11.6008 11.6519 11.6 11.6C11.601 11.4375 11.5035 11.2906 11.3533 11.2283C11.2033 11.166 11.0305 11.2006 10.916 11.316Z" fill="#90CBF9"/>
<path d="M12.516 11.316C12.443 11.3926 12.4016 11.4941 12.4 11.6C12.3986 11.6525 12.4096 11.7045 12.432 11.7519C12.4524 11.8004 12.4809 11.8451 12.516 11.884C12.6738 12.0387 12.9262 12.0387 13.084 11.884C13.1192 11.8451 13.1477 11.8004 13.168 11.7519C13.1905 11.7045 13.2014 11.6525 13.2 11.6C13.201 11.4375 13.1035 11.2906 12.9533 11.2283C12.8033 11.166 12.6305 11.2006 12.516 11.316Z" fill="#90CBF9"/>
<path d="M7.60001 8.00001H16.4C16.6209 8.00001 16.8 7.8209 16.8 7.60001V2.00001C16.8 1.77911 16.6209 1.60001 16.4 1.60001H7.60001C7.37911 1.60001 7.20001 1.77911 7.20001 2.00001V7.60001C7.20001 7.8209 7.37911 8.00001 7.60001 8.00001ZM16 7.20001H8.00001V5.20001H16V7.20001ZM8.00001 2.40001H16V4.40001H8.00001V2.40001Z" fill="#90CBF9"/>
</svg>
