<svg width="128" height="128" viewBox="0 0 128 128" fill="none" xmlns="http://www.w3.org/2000/svg">
<path d="M64 0V128C99.3462 128 128 99.3462 128 64C128 28.6538 99.3462 0 64 0Z" fill="#0789DE"/>
<path d="M117.698 64C117.698 28.6538 93.6565 0 64 0C28.6538 0 0 28.6538 0 64C0 99.3462 28.6538 128 64 128C93.6565 128 117.698 99.3462 117.698 64Z" fill="#2196F3"/>
<path d="M101.473 48.0322H93.7465L86.02 64L93.7465 79.9677H101.473V48.0322Z" fill="#DEF1FF"/>
<path d="M50.7365 48.0322V36.4427L23.179 64L50.7365 91.5573V79.9678H93.7465V48.0322H50.7365Z" fill="white"/>
</svg>
