<svg width="30" height="30" viewBox="0 0 30 30" fill="none" xmlns="http://www.w3.org/2000/svg">
<rect width="30" height="30" rx="15" fill="white"/>
<path d="M5.02158 20.8411L5 11.7515C4.99895 11.3042 5.45738 11.0019 5.86997 11.1776L14.1718 14.7149C14.4012 14.8127 14.5503 15.0371 14.5509 15.2858L14.5724 24.3754C14.5735 24.8227 14.115 25.125 13.7025 24.9492L5.40059 21.4119C5.17118 21.3142 5.02213 21.0898 5.02158 20.8411ZM24.0428 12.1793L16.3817 15.4864L16.4016 23.8983L24.0628 20.5913L24.0428 12.1793ZM24.3528 11.0827C24.6821 11.0819 24.9776 11.3459 24.9784 11.7043L25 20.7939C25.0006 21.0426 24.8526 21.2678 24.6237 21.3666L16.3387 24.943C16.257 24.9783 16.1732 24.9947 16.0917 24.995C15.7624 24.9957 15.4669 24.7317 15.466 24.3733L15.4445 15.2837C15.4438 15.035 15.5918 14.8098 15.8208 14.711L24.1058 11.1347C24.1875 11.0993 24.2712 11.0829 24.3528 11.0827ZM14.9394 5.96294L6.99234 9.4997L14.9561 12.9989L22.9032 9.46215L14.9394 5.96294ZM14.9371 5C15.0234 4.99981 15.1098 5.01742 15.1905 5.05288L23.9251 8.89075C24.4206 9.10849 24.4222 9.80866 23.9278 10.0287L15.2115 13.9077C15.131 13.9436 15.0447 13.9616 14.9584 13.9618C14.8721 13.962 14.7857 13.9444 14.705 13.9089L5.97046 10.0711C5.47495 9.85336 5.47331 9.15317 5.96774 8.93314L14.684 5.05409C14.7645 5.01824 14.8508 5.0002 14.9371 5Z" fill="#2196F3"/>
</svg>
