<svg width="64" height="64" viewBox="0 0 64 64" fill="none" xmlns="http://www.w3.org/2000/svg">
<path d="M50.515 7.143L40.515 1.143C40.3595 1.04949 40.1815 1.00006 40 1H24C23.8185 1.00006 23.6405 1.04949 23.485 1.143L13.485 7.143C13.3371 7.23187 13.2147 7.35749 13.1297 7.50766C13.0447 7.65784 13 7.82745 13 8V58C13.0001 58.2652 13.1055 58.5195 13.293 58.707L17.293 62.707C17.4805 62.8946 17.7348 62.9999 18 63H46C46.2652 62.9999 46.5195 62.8946 46.707 62.707L50.707 58.707C50.8946 58.5195 50.9999 58.2652 51 58V8C51 7.82745 50.9553 7.65784 50.8703 7.50766C50.7853 7.35749 50.6629 7.23187 50.515 7.143ZM45 43H19V41H45V43ZM45 39H19V33H45V39ZM19 45H24V61H19V45ZM26 45H38V61H26V45ZM40 45H45V61H40V45ZM24.277 3H39.723L45 6.166V31H19V6.166L24.277 3ZM15 8.566L17 7.366V59.586L15 57.586V8.566ZM49 57.586L47 59.586V7.366L49 8.566V57.586Z" fill="#2196F3"/>
<path d="M32 24C33.2593 24 34.4867 23.6038 35.5083 22.8675C36.5299 22.1311 37.2939 21.0921 37.6921 19.8974C38.0903 18.7027 38.1026 17.413 37.7271 16.211C37.3516 15.009 36.6074 13.9556 35.6 13.2L34.4 14.8C35.0716 15.3037 35.5677 16.006 35.8181 16.8073C36.0684 17.6087 36.0602 18.4685 35.7947 19.2649C35.5293 20.0614 35.0199 20.7541 34.3388 21.245C33.6578 21.7359 32.8395 22 32 22C31.1605 22 30.3422 21.7359 29.6612 21.245C28.9801 20.7541 28.4708 20.0614 28.2053 19.2649C27.9398 18.4685 27.9316 17.6087 28.1819 16.8073C28.4323 16.006 28.9284 15.3037 29.6 14.8L28.4 13.2C27.3926 13.9556 26.6484 15.009 26.2729 16.211C25.8974 17.413 25.9097 18.7027 26.3079 19.8974C26.7061 21.0921 27.4701 22.1311 28.4917 22.8675C29.5133 23.6038 30.7407 24 32 24V24Z" fill="#2196F3"/>
<path d="M31 10H33V16H31V10Z" fill="#2196F3"/>
<path d="M37 35H39V37H37V35Z" fill="#2196F3"/>
<path d="M41 35H43V37H41V35Z" fill="#2196F3"/>
<path d="M32 48C31.2089 48 30.4355 48.2346 29.7777 48.6741C29.1199 49.1136 28.6072 49.7384 28.3045 50.4693C28.0017 51.2002 27.9225 52.0044 28.0769 52.7804C28.2312 53.5563 28.6122 54.269 29.1716 54.8284C29.731 55.3878 30.4437 55.7688 31.2196 55.9231C31.9956 56.0775 32.7998 55.9983 33.5307 55.6955C34.2617 55.3928 34.8864 54.8801 35.3259 54.2223C35.7654 53.5645 36 52.7911 36 52C36 50.9391 35.5786 49.9217 34.8284 49.1716C34.0783 48.4214 33.0609 48 32 48V48ZM32 54C31.6044 54 31.2178 53.8827 30.8889 53.6629C30.56 53.4432 30.3036 53.1308 30.1522 52.7654C30.0009 52.3999 29.9613 51.9978 30.0384 51.6098C30.1156 51.2219 30.3061 50.8655 30.5858 50.5858C30.8655 50.3061 31.2219 50.1156 31.6098 50.0384C31.9978 49.9613 32.3999 50.0009 32.7654 50.1522C33.1308 50.3036 33.4432 50.56 33.663 50.8889C33.8827 51.2178 34 51.6044 34 52C34 52.5304 33.7893 53.0391 33.4142 53.4142C33.0392 53.7893 32.5304 54 32 54Z" fill="#2196F3"/>
</svg>
