<svg width="64" height="64" viewBox="0 0 64 64" fill="none" xmlns="http://www.w3.org/2000/svg">
<path d="M32 0C14.3001 0 0 14.2836 0 32C0 49.7164 14.2836 64 32 64C49.7164 64 64 49.7164 64 32C64 14.2836 49.7001 0 32 0ZM32 59.7213C16.6425 59.7213 4.27854 47.3573 4.27854 31.9999C4.27854 16.6424 16.6426 4.27841 32 4.27841C47.3574 4.27841 59.7215 16.6424 59.7215 31.9999C59.7215 47.3573 47.3575 59.7213 32 59.7213Z" fill="#2196F3"/>
<path d="M45.8607 29.8688H17.9278C16.6426 29.8688 15.7966 30.7147 15.7966 31.9999C15.7966 33.2851 16.6425 34.1309 17.9278 34.1309H45.8608C47.146 34.1309 47.992 33.285 47.992 31.9999C47.9918 30.7147 47.146 29.8688 45.8607 29.8688Z" fill="#2196F3"/>
</svg>
