<svg width="64" height="64" viewBox="0 0 64 64" fill="none" xmlns="http://www.w3.org/2000/svg">
<g clip-path="url(#clip0)">
<path d="M39.9996 34.667C38.525 34.667 37.3331 35.8618 37.3331 37.3334V48.0003C37.3331 49.4695 36.1383 50.6668 34.6661 50.6668H26.6662V10.6672C26.6662 8.38987 25.2156 6.35522 23.0344 5.59791L22.2449 5.33375H34.6661C36.1383 5.33375 37.3331 6.531 37.3331 8.00071V16.0006C37.3331 17.4723 38.525 18.6671 39.9996 18.6671C41.4742 18.6671 42.6661 17.4723 42.6661 16.0006V8.00071C42.6661 3.59011 39.0767 0.000793457 34.6661 0.000793457H5.99994C5.89838 0.000793457 5.81342 0.0462032 5.71478 0.0593866C5.58637 0.0486446 5.46381 0.000793457 5.33344 0.000793457C2.39206 0.000793457 0 2.39237 0 5.33375V53.3333C0 55.6106 1.45067 57.6452 3.6318 58.4026L19.68 63.7521C20.2239 63.9201 20.7649 64.0002 21.3333 64.0002C24.2746 64.0002 26.6662 61.6081 26.6662 58.6667V56.0002H34.6661C39.0767 56.0002 42.6661 52.4109 42.6661 48.0003V37.3334C42.6661 35.8618 41.4742 34.667 39.9996 34.667V34.667Z" fill="#2196F3"/>
<path d="M63.2181 24.7818L52.5512 14.1154C51.789 13.3527 50.642 13.1232 49.645 13.5363C48.6504 13.9499 47.9995 14.923 47.9995 16.0007V24.0006H37.3331C35.8609 24.0006 34.6661 25.1949 34.6661 26.6671C34.6661 28.1392 35.8609 29.3335 37.3331 29.3335H47.9995V37.3334C47.9995 38.4111 48.6504 39.3842 49.645 39.7978C50.642 40.2109 51.789 39.9814 52.5512 39.2192L63.2181 28.5523C64.2606 27.5098 64.2606 25.8243 63.2181 24.7818V24.7818Z" fill="#2196F3"/>
</g>
<defs>
<clipPath id="clip0">
<rect width="64" height="64" fill="white"/>
</clipPath>
</defs>
</svg>
