<svg width="35" height="35" viewBox="0 0 35 35" fill="none" xmlns="http://www.w3.org/2000/svg">
<path d="M17.5 0C7.85011 0 0 7.85011 0 17.5C0 27.1499 7.85011 35 17.5 35C27.1499 35 35 27.1499 35 17.5C35 7.85011 27.1499 0 17.5 0Z" fill="#2196F3"/>
<path d="M25.1562 18.9582H18.9582V25.1562C18.9582 25.9613 18.3051 26.6145 17.5 26.6145C16.6949 26.6145 16.0417 25.9613 16.0417 25.1562V18.9582H9.84374C9.03865 18.9582 8.3855 18.3051 8.3855 17.5C8.3855 16.6949 9.03865 16.0417 9.84374 16.0417H16.0417V9.84374C16.0417 9.03865 16.6949 8.3855 17.5 8.3855C18.3051 8.3855 18.9582 9.03865 18.9582 9.84374V16.0417H25.1562C25.9613 16.0417 26.6145 16.6949 26.6145 17.5C26.6145 18.3051 25.9613 18.9582 25.1562 18.9582V18.9582Z" fill="#FAFAFA"/>
</svg>
