<svg width="25" height="23" viewBox="0 0 25 23" fill="none" xmlns="http://www.w3.org/2000/svg">
<path d="M0.734605 18.0588L0.708742 7.69667C0.707485 7.1868 1.25704 6.84212 1.75165 7.04251L11.7039 11.075C11.9789 11.1864 12.1575 11.4423 12.1582 11.7258L12.1841 22.0879C12.1853 22.5978 11.6358 22.9425 11.1412 22.7421L1.18897 18.7096C0.913953 18.5982 0.735273 18.3423 0.734605 18.0588ZM23.5371 8.18441L14.353 11.9545L14.3769 21.5441L23.561 17.774L23.5371 8.18441ZM23.9087 6.93429C24.3035 6.93336 24.6577 7.23434 24.6587 7.64295L24.6846 18.0051C24.6853 18.2886 24.5079 18.5453 24.2334 18.6579L14.3015 22.735C14.2035 22.7752 14.1031 22.794 14.0054 22.7942C13.6106 22.7951 13.2563 22.4942 13.2553 22.0856L13.2295 11.7234C13.2287 11.4399 13.4061 11.1832 13.6807 11.0706L23.6126 6.99352C23.7106 6.95325 23.8109 6.93451 23.9087 6.93429ZM12.624 1.09775L3.09714 5.12966L12.644 9.11873L22.171 5.08686L12.624 1.09775ZM12.6213 1.84565e-06C12.7248 -0.000221684 12.8283 0.0198587 12.9251 0.0602802L23.396 4.43545C23.9899 4.68368 23.9919 5.48187 23.3992 5.73271L12.9502 10.1548C12.8537 10.1957 12.7502 10.2162 12.6467 10.2165C12.5433 10.2167 12.4398 10.1966 12.343 10.1562L1.87212 5.78103C1.27811 5.53283 1.27615 4.73461 1.86886 4.48377L12.3178 0.0616587C12.4144 0.0207901 12.5178 0.000225375 12.6213 1.84565e-06Z" fill="white"/>
</svg>
