<svg width="64" height="64" viewBox="0 0 64 64" fill="none" xmlns="http://www.w3.org/2000/svg">
<path d="M16.4377 59H7.58684C6.51959 59 5.87571 58.4044 5.58696 58.0493C5.08846 57.436 4.89534 56.638 5.05746 55.8594C7.65359 43.3892 18.6586 34.2824 31.3631 33.9869C31.5747 33.9947 31.7868 34 32.0002 34C32.2155 34 32.4295 33.9946 32.643 33.9866C35.7496 34.0575 38.7841 34.6416 41.6725 35.7262C42.965 36.2119 44.4063 35.5573 44.8917 34.2646C45.3771 32.9721 44.7227 31.5308 43.4301 31.0454C43.0162 30.8899 42.5995 30.7444 42.1807 30.6064C46.3183 27.5026 49.0002 22.5586 49.0002 17C49.0002 7.62625 41.3741 0 32.0002 0C22.6263 0 15.0002 7.62625 15.0002 17C15.0002 22.5636 17.6867 27.5115 21.8306 30.6147C18.0342 31.8645 14.4717 33.808 11.354 36.3725C5.63746 41.0746 1.66284 47.6332 0.162461 54.8404C-0.307789 57.0986 0.255461 59.4181 1.70784 61.2039C3.15284 62.9809 5.29571 64 7.58684 64H16.4377C17.8185 64 18.9377 62.8807 18.9377 61.5C18.9377 60.1193 17.8185 59 16.4377 59ZM20.0002 17C20.0002 10.3831 25.3833 5 32.0002 5C38.6171 5 44.0002 10.3831 44.0002 17C44.0002 23.4209 38.931 28.6797 32.5845 28.9856C32.3898 28.9821 32.1952 28.9791 32.0002 28.9791C31.8047 28.9791 31.6093 28.982 31.4141 28.9855C25.0685 28.6788 20.0002 23.4202 20.0002 17Z" fill="#2196F3"/>
<path d="M62.0861 43.0759C61.016 40.6821 58.6055 39.1311 55.9391 39.125H48.1426C48.137 39.125 48.1318 39.125 48.126 39.125C45.3135 39.125 42.8598 40.7825 41.8724 43.3509C41.741 43.6926 41.5804 44.1231 41.4128 44.625H25.0445C24.3686 44.625 23.7216 44.8986 23.2507 45.3835L18.9562 49.807C18.0104 50.7812 18.0151 52.3324 18.9669 53.3008L23.3419 57.7523C23.8119 58.2305 24.4544 58.4999 25.1249 58.4999H33.2499C34.6306 58.4999 35.7499 57.3806 35.7499 55.9999C35.7499 54.6191 34.6306 53.4999 33.2499 53.4999H26.1731L24.2446 51.5376L26.1017 49.625H43.2881C44.4399 49.625 45.4425 48.8381 45.7164 47.7195C45.9186 46.8936 46.1724 46.0996 46.5394 45.145C46.7814 44.5155 47.3891 44.125 48.132 44.125C48.1336 44.125 48.1353 44.125 48.1369 44.125H55.9333C56.6403 44.1266 57.2487 44.5066 57.5214 45.1165C58.1925 46.618 58.9939 48.9425 58.9999 51.4897C59.0059 54.0559 58.2054 56.4336 57.5325 57.9765C57.2613 58.5988 56.6476 59 55.9625 59C55.9611 59 55.9597 59 55.9584 59H48.0678C47.3761 58.9984 46.7283 58.5534 46.4558 57.8927C46.1634 57.1839 45.91 56.3745 45.6811 55.4181C45.3598 54.0754 44.0103 53.2474 42.668 53.5686C41.3251 53.89 40.4971 55.2391 40.8185 56.5819C41.1086 57.7942 41.4408 58.8466 41.8336 59.7991C42.8835 62.3446 45.326 63.9935 48.062 63.9999H55.9526C55.958 63.9999 55.963 63.9999 55.9684 63.9999C58.6373 63.9997 61.0493 62.4211 62.1159 59.9748C62.9799 57.9934 64.008 54.9109 63.9999 51.4779C63.9919 48.0542 62.9548 45.0191 62.0861 43.0759Z" fill="#2196F3"/>
<path d="M53.875 54C55.2557 54 56.375 52.8807 56.375 51.5C56.375 50.1193 55.2557 49 53.875 49C52.4943 49 51.375 50.1193 51.375 51.5C51.375 52.8807 52.4943 54 53.875 54Z" fill="#2196F3"/>
</svg>
